<?xml version="1.0" encoding="UTF-8" standalone="no"?>
<svg
   xmlns:dc="http://purl.org/dc/elements/1.1/"
   xmlns:cc="http://creativecommons.org/ns#"
   xmlns:rdf="http://www.w3.org/1999/02/22-rdf-syntax-ns#"
   xmlns:svg="http://www.w3.org/2000/svg"
   xmlns="http://www.w3.org/2000/svg"
   xmlns:sodipodi="http://sodipodi.sourceforge.net/DTD/sodipodi-0.dtd"
   xmlns:inkscape="http://www.inkscape.org/namespaces/inkscape"
   id="svg8"
   version="1.1"
   viewBox="0 0 14.227465 13.114179"
   height="49.565399"
   width="53.773098"
   sodipodi:docname="heart_empty.svg"
   inkscape:version="1.0 (4035a4fb49, 2020-05-01)">
  <sodipodi:namedview
     inkscape:document-rotation="0"
     pagecolor="#ffffff"
     bordercolor="#666666"
     borderopacity="1"
     objecttolerance="10"
     gridtolerance="10"
     guidetolerance="10"
     inkscape:pageopacity="0"
     inkscape:pageshadow="2"
     inkscape:window-width="1827"
     inkscape:window-height="1046"
     id="namedview13"
     showgrid="false"
     inkscape:zoom="10.318276"
     inkscape:cx="16.02987"
     inkscape:cy="19.514552"
     inkscape:window-x="-11"
     inkscape:window-y="-11"
     inkscape:window-maximized="1"
     inkscape:current-layer="svg8"
     showguides="true"
     inkscape:guide-bbox="true"
     inkscape:snap-smooth-nodes="true"
     inkscape:snap-center="true">
    <sodipodi:guide
       position="1.6026088,7.3807621"
       orientation="1,0"
       id="guide870" />
    <sodipodi:guide
       position="7.9747256,15.755326"
       orientation="0,-1"
       id="guide880" />
    <sodipodi:guide
       position="16.183883,2.0513761"
       orientation="0,-1"
       id="guide927" />
    <sodipodi:guide
       position="12.575522,7.3263681"
       orientation="1,0"
       id="guide929" />
  </sodipodi:namedview>
  <defs
     id="defs2" />
  <metadata
     id="metadata5">
    <rdf:RDF>
      <cc:Work
         rdf:about="">
        <dc:format>image/svg+xml</dc:format>
        <dc:type
           rdf:resource="http://purl.org/dc/dcmitype/StillImage" />
        <dc:title />
      </cc:Work>
    </rdf:RDF>
  </metadata>
  <path
     id="path922"
     style="fill:#ffffff;stroke:none;stroke-width:0.572027;stroke-linecap:butt;stroke-linejoin:miter;stroke-miterlimit:4;stroke-dasharray:none"
     d="m 3.7398283,0.4254322 c -1.863471,-2.4e-7 -3.27826864,1.5349401 -3.27826864,3.3744325 0,1.8394925 2.06907454,3.5145069 3.27826864,4.9323833 l 3.3739493,3.956248 V 11.99312 L 4.1471956,8.485798 C 3.084089,7.2287178 0.84524852,5.2609616 0.84524852,3.7766694 0.84524855,2.2923775 2.10149,1.0009653 3.7398283,1.0009655 c 1.6383389,-2e-7 3.3739493,2.2746291 3.3739493,3.9267706 V 3.2963336 c 0,-1.2400309 -2.0859613,-2.8709014 -3.3739493,-2.8709014 z" />
  <path
     id="path956"
     style="fill:#ffffff;stroke:none;stroke-width:0.572027;stroke-linecap:butt;stroke-linejoin:miter;stroke-miterlimit:4;stroke-dasharray:none"
     d="m 10.487727,0.4254322 c -1.2879882,0 -3.3739494,1.6308705 -3.3739494,2.8709014 v 1.6314025 c 0,-1.6521415 1.7356102,-3.9267708 3.3739494,-3.9267706 1.638338,-2e-7 2.89458,1.291412 2.89458,2.7757039 0,1.4842922 -2.23884,3.4520484 -3.301948,4.7091286 L 7.1137776,11.99312 v 0.695376 L 10.487727,8.732248 c 1.209194,-1.4178764 3.278269,-3.0928908 3.278269,-4.9323833 -10e-7,-1.8394924 -1.414798,-3.37443274 -3.278269,-3.3744325 z" />
</svg>
