<?xml version="1.0" encoding="UTF-8" standalone="no"?>
<svg
   xmlns:dc="http://purl.org/dc/elements/1.1/"
   xmlns:cc="http://creativecommons.org/ns#"
   xmlns:rdf="http://www.w3.org/1999/02/22-rdf-syntax-ns#"
   xmlns:svg="http://www.w3.org/2000/svg"
   xmlns="http://www.w3.org/2000/svg"
   xmlns:sodipodi="http://sodipodi.sourceforge.net/DTD/sodipodi-0.dtd"
   xmlns:inkscape="http://www.inkscape.org/namespaces/inkscape"
   inkscape:version="1.0 (4035a4fb49, 2020-05-01)"
   sodipodi:docname="spopify_logo.svg"
   viewBox="0 0 878.81665 878.95087"
   height="878.95087"
   width="878.81665"
   id="svg10"
   version="1.1">
  <metadata
     id="metadata16">
    <rdf:RDF>
      <cc:Work
         rdf:about="">
        <dc:format>image/svg+xml</dc:format>
        <dc:type
           rdf:resource="http://purl.org/dc/dcmitype/StillImage" />
        <dc:title />
      </cc:Work>
    </rdf:RDF>
  </metadata>
  <defs
     id="defs14" />
  <sodipodi:namedview
     inkscape:current-layer="g840"
     inkscape:window-maximized="1"
     inkscape:window-y="-11"
     inkscape:window-x="-11"
     inkscape:cy="367.48023"
     inkscape:cx="473.21741"
     inkscape:zoom="0.59583333"
     showgrid="false"
     id="namedview12"
     inkscape:window-height="1046"
     inkscape:window-width="1827"
     inkscape:pageshadow="2"
     inkscape:pageopacity="0"
     guidetolerance="10"
     gridtolerance="10"
     objecttolerance="10"
     borderopacity="1"
     bordercolor="#666666"
     pagecolor="#ffffff"
     inkscape:document-rotation="0" />
  <g
     id="g18"
     inkscape:label="Image"
     inkscape:groupmode="layer"
     transform="translate(-181.55435,-184.96987)">
    <g
       id="g840">
      <path
         style="fill:#0050c8;fill-opacity:1;stroke-width:0.735664"
         d="m 659.23358,1062.4059 c 75.09809,-6.5895 146.78407,-32.1369 208.92868,-74.45796 62.597,-42.6291 113.7358,-101.3918 147.09914,-169.029 25.0684,-50.82113 39.6621,-104.32881 44.2422,-162.21403 1.1556,-14.60487 1.1575,-50.10833 0,-64.37063 -7.6449,-94.52439 -41.5674,-177.95062 -101.85114,-250.49371 -11.0261,-13.26842 -39.4842,-41.87739 -52.707,-52.98649 C 838.03779,232.64171 756.5341,197.25491 672.1077,187.76194 c -25.037,-2.81518 -59.45417,-3.60584 -82.39758,-1.89291 -76.05177,5.67794 -147.09951,29.75522 -210.01068,71.17025 -26.81403,17.65194 -48.27409,35.28993 -71.08898,58.42792 -14.02708,14.22573 -16.36146,16.7633 -25.61514,27.8447 -43.12944,51.64808 -75.21468,115.99932 -90.1796,180.86725 -7.99848,34.67075 -11.26137,63.6903 -11.26137,100.15653 0,25.06665 1.05694,40.51627 4.32303,63.19102 16.61336,115.33794 78.24431,218.85314 172.10165,289.06174 69.79719,52.21066 150.91517,81.65546 239.49661,86.93436 14.24173,0.8487 45.87681,0.2766 61.75794,-1.1169 z"
         id="path40"
         inkscape:export-xdpi="6.9912195"
         inkscape:export-ydpi="6.9912195" />
      <path
         style="fill:#ffffff;stroke:#ffffff;stroke-width:0.735664"
         d="m 891.15226,579.05911 c -4.373,-1.17754 -7.1886,-2.53577 -17.0532,-8.22627 -33.02933,-19.05324 -78.63681,-36.60531 -125.48226,-48.29192 -42.25352,-10.54104 -82.32788,-16.79187 -133.52308,-20.82699 -20.94603,-1.65094 -89.90977,-1.88619 -110.71749,-0.37769 -49.08782,3.55872 -89.60934,10.0884 -126.16643,20.33059 -14.31065,4.00942 -20.88138,4.72177 -28.52997,3.09305 -16.52483,-3.51887 -28.77916,-16.14082 -32.30014,-33.26915 -3.2001,-15.5673 4.19405,-32.81322 17.99912,-41.98073 11.52205,-7.65144 64.44211,-19.91529 112.20647,-26.00308 37.00685,-4.71669 63.04013,-6.21441 108.28746,-6.2299 44.69425,-0.0153 67.25621,1.16782 105.93566,5.55515 99.9998,11.34277 194.26631,40.19798 259.95776,79.5737 10.4291,6.25127 16.3174,13.33819 20.0125,24.08645 2.151,6.25682 2.3384,17.41937 0.4014,23.90909 -4.2121,14.11161 -15.2919,25.01429 -29.1757,28.70905 -5.0595,1.34646 -16.7632,1.31896 -21.8521,-0.0513 z"
         id="path53"
         inkscape:export-xdpi="6.9912195"
         inkscape:export-ydpi="6.9912195" />
      <path
         style="fill:#ffffff;stroke:#ffffff;stroke-width:0.735664"
         d="m 377.07317,806.12501 c 6.06707,0.65955 9.60904,2.08082 18.7558,7.52605 4.04498,2.40806 13.3119,7.46752 20.59315,11.24325 115.26097,59.76919 273.13024,75.68859 401.46594,40.48347 16.59936,-4.55355 20.98263,-5.19335 27.38154,-3.99673 27.96505,5.22952 38.1079,39.61146 17.50394,59.33438 -4.79708,4.59195 -10.26626,7.05808 -24.49966,11.04725 -41.04843,11.50455 -84.78815,18.35777 -133.53323,20.92225 -17.7266,0.93259 -62.58267,0.46753 -78.7157,-0.81612 -72.67261,-5.78229 -134.12899,-19.56751 -194.1943,-43.55951 -33.72485,-13.47078 -74.78695,-34.96751 -83.50752,-43.71759 -4.63404,-4.64975 -8.56218,-12.40587 -9.66555,-19.08469 -2.68243,-16.23661 7.54085,-32.8988 23.25387,-37.89987 5.65421,-1.79959 9.12263,-2.13865 15.16172,-1.48214 z"
         id="path51"
         inkscape:export-xdpi="6.9912195"
         inkscape:export-ydpi="6.9912195" />
      <path
         style="fill:#ffffff;stroke:#ffffff;stroke-width:0.735664"
         d="m 421.22425,736.33504 c 0.56065,-2.27371 2.80148,-7.68996 4.9797,-12.03611 26.99998,-53.87238 41.36343,-117.27971 42.27891,-186.63994 0.22456,-17.01467 -4.38201,-75.46263 -7.31201,-92.7745 -5.35947,-31.66624 -11.47263,-58.42229 -20.54862,-89.937 -5.81857,-20.20397 -6.13551,-23.43431 -3.07947,-31.38738 8.08961,-21.05252 37.7312,-23.92511 49.31025,-4.77869 3.3171,5.48495 12.44329,37.26381 19.56146,68.11619 7.32598,31.75304 11.71937,59.11111 14.86674,92.57652 7.33432,77.98446 -0.0763,148.17644 -22.77376,215.70726 -7.64353,22.74156 -23.77214,58.91153 -29.1774,65.43318 -6.4579,7.79171 -18.38751,11.62741 -28.03802,9.01501 -14.73904,-3.9899 -23.64828,-18.77141 -20.06778,-33.29454 z"
         id="path42"
         inkscape:export-xdpi="6.9912195"
         inkscape:export-ydpi="6.9912195" />
      <path
         id="path42-3"
         d="m 799.19105,764.24097 c -0.27083,-2.3261 -1.81411,-7.98078 -3.42959,-12.56596 -20.02458,-56.83527 -26.31578,-121.544 -18.51817,-190.4706 1.91284,-16.9083 13.81916,-74.31582 18.89891,-91.12302 9.29172,-30.74311 18.71486,-56.52025 31.67469,-86.64654 8.30848,-19.31386 9.02837,-22.47887 6.99474,-30.75263 -5.38319,-21.9014 -34.42981,-28.47178 -48.32047,-10.93014 -3.97932,5.02522 -17.02211,35.40727 -27.95646,65.12221 -11.25358,30.58238 -19.04611,57.17265 -26.36905,89.97835 -17.06465,76.44714 -18.52288,147.01417 -4.48115,216.85983 4.72864,23.5211 16.18977,61.42942 20.73371,68.57795 5.42884,8.54066 16.78266,13.84339 26.68475,12.46294 15.12327,-2.10835 25.81738,-15.6547 24.08809,-30.51239 z"
         style="fill:#ffffff;stroke:#ffffff;stroke-width:0.735664"
         inkscape:export-xdpi="6.9912195"
         inkscape:export-ydpi="6.9912195" />
    </g>
  </g>
</svg>
